# xmcd CD database file
#
# Track frame offsets:
#	150
#	24077
#	43707
#
# Disc length: 922 seconds
#
# Revision: 0
# Processed by: cddbd v1.5.1PL0 Copyright (c) Steve Scherf et al.
# Submitted via: CDex 1.40Release
#
DISCID=17039803
DTITLE=VANILLA - メラ☆メラ
DYEAR=1900
DGENRE=ロック (日本)
TTITLE0=メラ☆メラ
TTITLE1=午前4時の本能
TTITLE2=メラ☆メラ （Backing Track）
EXTD=
EXTT0=
EXTT1=
EXTT2=
PLAYORDER=
